# xmcd
#
# Track frame offsets:
#	182
#	14550
#	30655
#	49312
#	63752
#	79230
#	89200
#	107367
#	121007
#	135382
#	153152
#
# Disc length: 2192 seconds
#
# Revision: 11
# Processed by: cddbd v1.5.1PL0 Copyright (c) Steve Scherf et al.
# Submitted via: audiograbber 1.83.01
#
DISCID=84088e0b
DTITLE=Travis, Randy - Greatest Hits Vol. 02 - Travis, Randy - Greatest Hits Vo
DTITLE=l. 02
DYEAR=1992
DGENRE=Country
TTITLE0=Look Heart, No Hands
TTITLE1=Forever and Ever, Amen
TTITLE2=No Place Like Home
TTITLE3=Is It Still Over
TTITLE4=He Walked on Water
TTITLE5=Take Another Swing at Me
TTITLE6=Promises
TTITLE7=Diggin' Up Bones
TTITLE8=I Won't Need You Anymore
TTITLE9=It's Just A Matter of Time
TTITLE10=I'd Do It All Again with You
EXTD=
EXTT0=
EXTT1=
EXTT2=
EXTT3=
EXTT4=
EXTT5=
EXTT6=
EXTT7=
EXTT8=
EXTT9=
EXTT10=
PLAYORDER=
